<svg width="90" height="90" fill="none" xmlns="http://www.w3.org/2000/svg"><path d="M41.33 16.44c-.27-4.43-3.93-7.94-8.43-7.94s-8.45 3.78-8.45 8.45 3.78 8.45 8.45 8.45c.39 0 .77-.04 1.14-.09l7.26 14.16v.06l.03-.03.03-.03-.03-23.04v.01zM48.67 16.44c.27-4.43 3.93-7.94 8.43-7.94 4.67 0 8.45 3.78 8.45 8.45s-3.78 8.45-8.45 8.45c-.39 0-.77-.04-1.14-.09L48.7 39.47v.06l-.03-.03-.03-.03.03-23.04v.01z" fill="#8B8987"/><path d="M40 28.17c-.24-7.66-5.19-13.81-12.91-13.81-4.85 0-9.13 2.42-11.7 6.12L1.46 55S27.374 58.056 40 62.503V28.17z" fill="#BEBDB9"/><path d="M27.09 14.36c3.824 0 6.967 1.51 9.196 3.963-1.865-1.858-4.361-2.963-7.46-2.963-4.599 0-8.658 2.428-11.095 6.14L5.63 52.727c.062.016 16.61 4.145 28.884 8.124C21.1 57.318 1.46 55 1.46 55l13.93-34.52c2.57-3.7 6.85-6.12 11.7-6.12z" fill="#DAD8D6"/><path d="M50 28.17c.24-7.66 5.19-13.81 12.91-13.81 4.85 0 9.13 2.42 11.7 6.12L88.54 55S62.626 58.056 50 62.503V28.17z" fill="#BEBDB9"/><path d="M62.91 14.36c-3.824 0-6.967 1.51-9.196 3.963 1.865-1.858 4.361-2.963 7.46-2.963 4.599 0 8.658 2.428 11.095 6.14l12.1 31.227c-.062.016-16.61 4.145-28.884 8.124C68.9 57.318 88.54 55 88.54 55L74.61 20.48c-2.57-3.7-6.85-6.12-11.7-6.12z" fill="#DAD8D6"/><path d="M44.94 17.51a5.464 5.464 0 0 0-5.436 4.914l-1.452 14.367a8.927 8.927 0 0 1-8.882 8.029v19H41v-6c2.6.657 5.322.663 7.925.019L49 57.82v6h11.75v-19a8.943 8.943 0 0 1-8.896-8.028l-1.48-14.377a5.464 5.464 0 0 0-5.434-4.905z" fill="#8B8987"/><path d="M44.95 52.26a3.9 3.9 0 1 0 0-7.8 3.9 3.9 0 0 0 0 7.8z" fill="#1E2533"/><path d="M20.5 83C31.822 83 41 73.822 41 62.5S31.822 42 20.5 42 0 51.178 0 62.5 9.178 83 20.5 83z" fill="#DAD8D6"/><path d="M20.5 42C31.822 42 41 51.178 41 62.5c0 .327-.01.652-.024.976-.51-10.869-9.482-19.524-20.476-19.524C9.502 43.952.528 52.613.023 63.486A20.84 20.84 0 0 1 0 62.5C0 51.178 9.178 42 20.5 42z" fill="#DAD8D6"/><path d="M20.451 77.046c8.06 0 14.595-6.535 14.595-14.595S28.512 47.857 20.45 47.857c-8.06 0-14.594 6.534-14.594 14.594 0 8.06 6.534 14.595 14.594 14.595z" fill="#8B8987"/><path d="M20.451 47.857c8.06 0 14.594 6.534 14.595 14.594 0 3.04-.931 5.861-2.52 8.198a14.527 14.527 0 0 1-8.196 2.518c-8.06 0-14.594-6.534-14.594-14.594 0-3.039.929-5.862 2.518-8.198a14.527 14.527 0 0 1 8.197-2.518z" fill="#008CD1"/><path d="M22.498 51.65c5.697 0 10.55 3.613 12.393 8.672.101.695.155 1.406.155 2.13 0 3.038-.931 5.86-2.52 8.197a14.528 14.528 0 0 1-8.196 2.518c-7.277 0-13.31-5.326-14.413-12.293 1.682-5.347 6.679-9.225 12.58-9.225z" fill="#4DC3EA"/><path d="M10.836 64.136c2.55 4.25 7.204 7.095 12.521 7.095 4.543 0 8.6-2.077 11.276-5.331a14.53 14.53 0 0 1-2.108 4.749 14.527 14.527 0 0 1-8.195 2.517c-6.09 0-11.307-3.73-13.494-9.03z" fill="#83DEFC"/><path d="M69.5 83C58.178 83 49 73.822 49 62.5S58.178 42 69.5 42 90 51.178 90 62.5 80.822 83 69.5 83z" fill="#DAD8D6"/><path d="M69.5 42C58.178 42 49 51.178 49 62.5c0 .327.01.652.024.976.51-10.869 9.482-19.524 20.476-19.524 10.998 0 19.972 8.661 20.477 19.534.015-.326.023-.655.023-.986C90 51.178 80.822 42 69.5 42z" fill="#DAD8D6"/><path d="M69.549 77.046c-8.06 0-14.595-6.535-14.595-14.595s6.534-14.594 14.595-14.594c8.06 0 14.594 6.534 14.594 14.594 0 8.06-6.534 14.595-14.594 14.595z" fill="#8B8987"/><path d="M69.549 47.857c-8.06 0-14.595 6.534-14.595 14.594 0 3.04.931 5.861 2.52 8.198a14.527 14.527 0 0 0 8.196 2.518c8.06 0 14.593-6.534 14.594-14.594a14.53 14.53 0 0 0-2.518-8.198 14.527 14.527 0 0 0-8.197-2.518z" fill="#008CD1"/><path d="M67.502 51.65c-5.697 0-10.55 3.613-12.392 8.672a14.71 14.71 0 0 0-.156 2.13c0 3.038.931 5.86 2.52 8.197a14.528 14.528 0 0 0 8.196 2.518c7.277 0 13.31-5.326 14.413-12.293-1.682-5.347-6.679-9.225-12.58-9.225z" fill="#4DC3EA"/><path d="M79.164 64.136c-2.55 4.25-7.204 7.095-12.521 7.095A14.563 14.563 0 0 1 55.367 65.9a14.53 14.53 0 0 0 2.108 4.749 14.527 14.527 0 0 0 8.195 2.517c6.09 0 11.307-3.73 13.494-9.03z" fill="#83DEFC"/></svg>