<svg width="90" height="90" fill="none" xmlns="http://www.w3.org/2000/svg"><path fill-rule="evenodd" clip-rule="evenodd" d="M24.444 44.77c0 5.492-4.452 9.944-9.941 9.944-5.492 0-9.944-4.452-9.944-9.945 0-5.492 4.452-9.944 9.944-9.944 5.489 0 9.941 4.452 9.941 9.944zM54.886 44.77c0 5.492-4.452 9.944-9.94 9.944-5.493 0-9.945-4.452-9.945-9.945 0-5.492 4.452-9.944 9.944-9.944 5.49 0 9.941 4.452 9.941 9.944zM85.328 44.77c0 5.492-4.452 9.944-9.94 9.944-5.493 0-9.945-4.452-9.945-9.945 0-5.492 4.452-9.944 9.944-9.944 5.49 0 9.941 4.452 9.941 9.944z" fill="#B3ACA8"/></svg>