<svg width="90" height="90" fill="none" xmlns="http://www.w3.org/2000/svg"><path d="M44.995 23.63C29.01 23.63 18 38.516 18 38.516l-1.704 21.756a6 6 0 0 0 2.511 5.363l14.241 10.098a20 20 0 0 0 22.802.233l15.236-10.343a6 6 0 0 0 2.612-5.433L72 38.516S60.989 23.63 45.005 23.63h-.01z" fill="#009FD9"/><path fill-rule="evenodd" clip-rule="evenodd" d="M58.19 27H31.81C23.27 31.391 18 38.516 18 38.516l-.604 7.705 28.476 14.512A44.973 44.973 0 0 1 60.6 72.741l10.486-7.118a6 6 0 0 0 2.612-5.433L72 38.516S66.73 31.391 58.19 27z" fill="#0069AB"/><path d="m17.395 46.223-1.1 14.05a6 6 0 0 0 2.512 5.361l11.392 8.079-10.358-9.984a5 5 0 0 1-1.519-3.275l-.927-14.231z" fill="#4DC3EA"/><path d="m88.088 59.61-.047-4.02V29.51l-3.082-2.323V55.59l-.047 4.02L83 76.55c0 1.02 1.564 1.85 3.5 1.85s3.5-.83 3.5-1.85l-1.912-16.94z" fill="#F7C631"/><path d="M88.04 36.592v-5.869l-3.08-.535v7.402l3.08-.998z" fill="#B27314"/><path d="m47.262 53.852 40.086-20.337a4.844 4.844 0 0 0 .031-8.623L47.295 4.185a5 5 0 0 0-4.59 0L2.621 24.892a4.844 4.844 0 0 0 .031 8.623l40.086 20.337a5 5 0 0 0 4.524 0z" fill="#009FD9"/><path opacity=".5" d="M42.704 4.187 2.372 25.033a1 1 0 0 0 .013 1.784l40.383 20.14a5 5 0 0 0 4.463 0l40.383-20.14a1 1 0 0 0 .013-1.784L47.296 4.187a5 5 0 0 0-4.592 0z" fill="#4DC3EA"/><path fill-rule="evenodd" clip-rule="evenodd" d="M67.665 43.501 47.262 53.852a5 5 0 0 1-4.524 0l-7.475-3.792-33.95-17.548a4.844 4.844 0 0 1 1.308-7.62l28.706-14.829L6.822 24.9c-1.364.826-1.26 2.838.181 3.52l34.26 16.189a9 9 0 0 0 7.512.082l28.967-12.922-31.658 16.31A2 2 0 0 0 45 49.856v.68a2 2 0 0 0 2.815 1.827l19.85-8.862z" fill="#4DC3EA"/></svg>