<svg width="90" height="90" fill="none" xmlns="http://www.w3.org/2000/svg"><path d="M45.742 69.212c-7.198-4.556-8.57-10.054-9-13.024h4.873s1.802-2.416 1.802-5.078v-1.054l-5.508-3.594c2.222-2.222 3.594-5.294 3.594-8.57 0-6.563-5.396-11.856-11.959-11.856s-11.959 5.293-11.959 11.856c0 3.276 1.372 6.348 3.594 8.57l-5.508 3.594v1.054c0 2.54 1.802 5.078 1.802 5.078h4.873c-.317 2.96-1.802 8.468-9 13.024-4.125 2.642-6.46 7.515-6.46 13.443 0 1.055.707 1.813 1.905 1.905 1.198.092 9.644.44 20.743.44 11.099 0 19.638-.317 20.856-.44 1.208-.123 1.904-.85 1.904-1.905 0-5.928-2.436-10.791-6.563-13.443h.01z" fill="#DAD8D6"/><path d="M37.53 67.44c3.768 3.533 9.358 4.7 11.693 5.049a13.25 13.25 0 0 0-3.481-3.277c-7.198-4.556-8.57-10.054-9-13.023h4.873s1.802-2.417 1.802-5.079v-1.054l-5.508-3.594c2.222-2.222 3.594-5.293 3.594-8.57 0-4.965-3.092-9.204-7.434-10.965 4.055 2.467 6.911 9.45 3.195 14.723-2.775 3.931-8.201 4.863-8.201 4.863h6.645c.071.051 3.276 5.14-1.086 7.986l-18.081.031c.46.993.932 1.659.942 1.68h8.897s6.092 6.5 11.15 11.251v-.02z" fill="#BEBDB9"/><path d="M17.586 37.882c0-6.563 5.396-11.856 11.959-11.856-4.167.501-10.566 5.436-11.396 15.45a11.726 11.726 0 0 1-.563-3.594zM21.19 46.452l-.02.013a.098.098 0 0 1 .01-.023l.01.01zM21.17 46.465c-.074.222-.506 1.99-.738 3.632l-4.75-.031v-.02l5.488-3.581zM17.37 70.953c3.257-2.376 3.943-9.686 4.035-10.905-1.096 2.816-3.358 6.185-8.048 9.154-4.126 2.641-6.46 7.515-6.46 13.443 1.7-5.6 4.112-7.265 7.939-9.905.784-.541 1.626-1.123 2.535-1.787z" fill="#F1F1F1"/><path d="M36.837 47.641a6.534 6.534 0 0 0 8.217 1.698l13.108-7.05 22.99-9.028c8.453-3.93 8.79-27.061.924-28.601C69.466 2.217 54.65 1.134 41.546 1c-1.844-.019-3.683.21-5.419.836-7.855 2.829-20.614 9.63-24.734 14.743-2.655 3.282-6.334 13.053-7.342 17.642-.245 1.114.365 2.196 1.436 2.588 10.471 3.837 14.52-10.931 14.837-12.888a55.995 55.995 0 0 0 13.68-4.555l.602-.291a28.313 28.313 0 0 0 13.315.043l.27-.064 5.03 4.08a2.048 2.048 0 0 1 .065 3.126l-6.682 5.904-8.473 6.123a6.534 6.534 0 0 0-1.294 9.353z" fill="#D5A47D"/><path d="M45.054 49.339a6.534 6.534 0 0 1-8.294-1.796l-.231-.87a7.123 7.123 0 0 0 8.08.663l13.381-7.722 18.076-7.982a20.478 20.478 0 0 0 11.676-14.106c-.045 6.625-2.245 13.715-6.59 15.735l-22.99 9.028-13.108 7.05zM5.487 36.81c-.97-.355-1.56-1.274-1.483-2.271a6.68 6.68 0 0 0 4.028 1.094l.686-.037.756-1.718a7.498 7.498 0 0 0 7.336-5.949l1.512-7.158 1.78-.246a30.716 30.716 0 0 0 13.015-4.989l1.546-1.045 2.68.839a30.715 30.715 0 0 0 12.642 1.207l3.757-.426 1.253 3.53a6.143 6.143 0 0 1-1.741 6.675l-3.512 3.077 3.544-3.132a2.048 2.048 0 0 0-.066-3.125l-5.03-4.08-.269.064a28.313 28.313 0 0 1-13.315-.044l-.601.29a55.995 55.995 0 0 1-13.681 4.557c-.316 1.956-4.366 16.724-14.837 12.887z" fill="#8D694B"/><path d="m9.287 26.3 3.095-9.706.932-.705A100.784 100.784 0 0 1 35.938 3.014a14.11 14.11 0 0 1 5.836-1.04l11.607.412a85.212 85.212 0 0 1 33.5 8.166c-.9-3.134-2.5-5.44-4.805-5.892-12.61-2.443-27.426-3.525-40.53-3.659-1.845-.018-3.684.211-5.42.836-7.854 2.829-20.614 9.63-24.733 14.744-1.378 1.703-3.032 5.153-4.445 8.72.508.11 1 .289 1.461.534l.878.466z" fill="#E3C29C"/><path opacity=".5" d="M37.31 41.115c.039-.254.405-.299.518-.068a11.225 11.225 0 0 0 5.305 5.247.056.056 0 0 1-.01.105c-3.285.813-6.328-1.921-5.813-5.284z" fill="#FADAAE"/></svg>