<svg width="90" height="90" fill="none" xmlns="http://www.w3.org/2000/svg"><path fill-rule="evenodd" clip-rule="evenodd" d="M67.882 15.1v17.09h7.448c4.475 0 9.67-2.93 9.67-7.92V15.1H67.882zM29.5 20.09v9.17c0 2.797 2.626 3.4 4.83 3.4 5 0 10.91 3.398 10.91 8.95h1V20.09H29.5zM5 50.14v-9.17l39.965 10 39.965-10v9.07c0 1.48-.69 2.96-2.07 4.09l-32.96 27c-1.38 1.13-3.19 1.7-5 1.7s-3.62-.57-5-1.7L7.07 54.23C5.69 53.1 5 51.62 5 50.14z" fill="#A93616"/><path fill-rule="evenodd" clip-rule="evenodd" d="M82.995 40.006a6.786 6.786 0 0 0-3.34 1.84L52.36 69.14a16.743 16.743 0 0 0-4.844 13.278A7.366 7.366 0 0 0 49.9 81.13l32.96-27c1.38-1.13 2.07-2.61 2.07-4.09v-9.17s-.87-.476-1.935-.864z" fill="#DC501D"/><path d="M75.33 7.18c4.673 0 10.164 3.272 9.644 8.56-.523 5.314-6.14 7.24-10.734 7.24-2.432 0-4.824 2.79-2.41 4.75l11.02 9.03c1.385 1.134 2.07 2.57 2.07 4.21 0 1.64-.694 2.854-2.07 3.98l-32.96 27c-1.38 1.13-3.19 1.7-5 1.7s-3.62-.57-5-1.7L7.07 45.06c-1.3-1.065-2.063-2.498-2.063-4.09 0-1.592.604-2.905 2.063-4.1l8.51-6.98c3.3-2.71 8.01-.369 8.01 2.14 0 5.686 5.861 9.19 10.93 9.19 5.101 0 11.02-3.463 10.713-9.19-.29-5.377-6.03-8.55-10.903-8.55-2.172 0-4.802-1.497-4.83-3.48 0-.761.046-1.54 1.04-2.36l9.48-7.77c2.76-2.26 7.24-2.26 10 0l9.87 8.08c1.87 1.53 6.14.77 5.8-2.21-.52-5.293 4.957-8.57 9.64-8.57v.01z" fill="#FA742C"/><path fill-rule="evenodd" clip-rule="evenodd" d="M77.794 49.091 49.89 71.95c-1.38 1.13-3.19 1.7-5 1.7s-3.62-.57-5-1.7L21.834 57.157l18.333 10.336a10 10 0 0 0 10.436-.376L77.794 49.09z" fill="#FFA459"/><path opacity=".5" fill-rule="evenodd" clip-rule="evenodd" d="m74.943 30.28 7.907 6.48c1.385 1.134 2.07 2.57 2.07 4.21 0 1.64-.694 2.854-2.07 3.98l-32.96 27c-1.38 1.13-3.19 1.7-5 1.7s-3.62-.57-5-1.7L7.07 45.06c-1.3-1.065-2.063-2.498-2.063-4.09 0-.252.015-.498.046-.737l13.921 10.709c11.231 8.639 27.54 5.046 34.1-7.513a22.793 22.793 0 0 1 15.316-11.71l6.553-1.438zM57.074 15.644l-5.578-3.598a10 10 0 0 0-10.948.07l-11.026 7.311c.06-.579.272-1.171 1.018-1.787l9.48-7.77c2.76-2.26 7.24-2.26 10 0l7.054 5.774z" fill="#FFA459"/></svg>